# xmcd CD database file
#
# Track frame offsets:
#	150
#	30842
#	60010
#	83467
#	113167
#
# Disc length: 1800 seconds
#
# Revision: 1
# Processed by: cddbd v1.5.1PL0 Copyright (c) Steve Scherf et al.
# Submitted via: CDex 1.51
#
DISCID=23070605
DTITLE=Johnny Griffin - The Congregation
DYEAR=1957
DGENRE=Jazz
TTITLE0=The Congregation
TTITLE1=Latin Quarter
TTITLE2=I'm Glad There Is You
TTITLE3=Main Spring
TTITLE4=It's You Or No One
EXTD=YEAR: 1957
EXTT0=
EXTT1=
EXTT2=
EXTT3=
EXTT4=
PLAYORDER=
